<mxfile host="app.diagrams.net" agent="Mozilla/5.0 (Windows NT 6.1; Win64; x64; rv:109.0) Gecko/20100101 Firefox/115.0" version="24.7.15">
  <diagram name="Page-1" id="w9Zklycr6OBbDQVJox4Q">
    <mxGraphModel dx="887" dy="622" grid="1" gridSize="10" guides="1" tooltips="1" connect="1" arrows="1" fold="1" page="1" pageScale="1" pageWidth="850" pageHeight="1100" math="1" shadow="0">
      <root>
        <mxCell id="0" />
        <mxCell id="1" parent="0" />
        <mxCell id="v59lE5m38w-6tQlt8g3H-1" value="" style="endArrow=blockThin;html=1;rounded=0;strokeWidth=2;endFill=1;" parent="1" edge="1">
          <mxGeometry width="50" height="50" relative="1" as="geometry">
            <mxPoint x="70" y="240" as="sourcePoint" />
            <mxPoint x="600" y="240" as="targetPoint" />
          </mxGeometry>
        </mxCell>
        <mxCell id="v59lE5m38w-6tQlt8g3H-2" value="" style="endArrow=blockThin;html=1;rounded=0;endFill=1;strokeWidth=2;" parent="1" edge="1">
          <mxGeometry width="50" height="50" relative="1" as="geometry">
            <mxPoint x="320" y="240" as="sourcePoint" />
            <mxPoint x="320" y="120" as="targetPoint" />
          </mxGeometry>
        </mxCell>
        <mxCell id="v59lE5m38w-6tQlt8g3H-3" value="" style="endArrow=blockThin;html=1;rounded=0;endFill=1;strokeWidth=3;fillColor=#d5e8d4;strokeColor=#82b366;" parent="1" edge="1">
          <mxGeometry width="50" height="50" relative="1" as="geometry">
            <mxPoint x="360" y="240" as="sourcePoint" />
            <mxPoint x="360" y="160" as="targetPoint" />
          </mxGeometry>
        </mxCell>
        <mxCell id="v59lE5m38w-6tQlt8g3H-4" value="" style="endArrow=blockThin;html=1;rounded=0;endFill=1;strokeWidth=3;fillColor=#d5e8d4;strokeColor=#82b366;" parent="1" edge="1">
          <mxGeometry width="50" height="50" relative="1" as="geometry">
            <mxPoint x="440" y="240" as="sourcePoint" />
            <mxPoint x="440" y="200" as="targetPoint" />
          </mxGeometry>
        </mxCell>
        <mxCell id="v59lE5m38w-6tQlt8g3H-5" value="" style="endArrow=blockThin;html=1;rounded=0;endFill=1;strokeWidth=3;fillColor=#d5e8d4;strokeColor=#82b366;" parent="1" edge="1">
          <mxGeometry width="50" height="50" relative="1" as="geometry">
            <mxPoint x="520" y="240" as="sourcePoint" />
            <mxPoint x="520" y="210" as="targetPoint" />
          </mxGeometry>
        </mxCell>
        <mxCell id="v59lE5m38w-6tQlt8g3H-6" value="" style="endArrow=blockThin;html=1;rounded=0;endFill=1;strokeWidth=3;fillColor=#d5e8d4;strokeColor=#82b366;" parent="1" edge="1">
          <mxGeometry width="50" height="50" relative="1" as="geometry">
            <mxPoint x="279.9996551724137" y="240" as="sourcePoint" />
            <mxPoint x="279.9996551724137" y="160" as="targetPoint" />
          </mxGeometry>
        </mxCell>
        <mxCell id="v59lE5m38w-6tQlt8g3H-7" value="" style="endArrow=blockThin;html=1;rounded=0;endFill=1;strokeWidth=3;fillColor=#d5e8d4;strokeColor=#82b366;" parent="1" edge="1">
          <mxGeometry width="50" height="50" relative="1" as="geometry">
            <mxPoint x="199.99965517241372" y="240" as="sourcePoint" />
            <mxPoint x="199.99965517241372" y="200" as="targetPoint" />
          </mxGeometry>
        </mxCell>
        <mxCell id="v59lE5m38w-6tQlt8g3H-8" value="" style="endArrow=blockThin;html=1;rounded=0;endFill=1;strokeWidth=3;fillColor=#d5e8d4;strokeColor=#82b366;" parent="1" edge="1">
          <mxGeometry width="50" height="50" relative="1" as="geometry">
            <mxPoint x="119.99965517241372" y="240" as="sourcePoint" />
            <mxPoint x="119.99965517241372" y="210" as="targetPoint" />
          </mxGeometry>
        </mxCell>
        <mxCell id="v59lE5m38w-6tQlt8g3H-9" value="&lt;font style=&quot;font-size: 20px;&quot;&gt;$$\omega$$&lt;/font&gt;" style="text;html=1;align=center;verticalAlign=middle;whiteSpace=wrap;rounded=0;" parent="1" vertex="1">
          <mxGeometry x="560" y="240" width="60" height="30" as="geometry" />
        </mxCell>
        <mxCell id="v59lE5m38w-6tQlt8g3H-10" value="&lt;font style=&quot;font-size: 12px;&quot;&gt;$$H(j\omega_0)$$&lt;/font&gt;" style="text;html=1;align=center;verticalAlign=middle;whiteSpace=wrap;rounded=0;" parent="1" vertex="1">
          <mxGeometry x="340" y="130" width="60" height="30" as="geometry" />
        </mxCell>
        <mxCell id="v59lE5m38w-6tQlt8g3H-11" value="&lt;font style=&quot;font-size: 20px;&quot;&gt;$$\omega_0$$&lt;/font&gt;" style="text;html=1;align=center;verticalAlign=middle;whiteSpace=wrap;rounded=0;" parent="1" vertex="1">
          <mxGeometry x="330" y="240" width="60" height="30" as="geometry" />
        </mxCell>
        <mxCell id="v59lE5m38w-6tQlt8g3H-12" value="&lt;font style=&quot;font-size: 20px;&quot;&gt;$$3\omega_0$$&lt;/font&gt;" style="text;html=1;align=center;verticalAlign=middle;whiteSpace=wrap;rounded=0;" parent="1" vertex="1">
          <mxGeometry x="410" y="240" width="60" height="30" as="geometry" />
        </mxCell>
        <mxCell id="v59lE5m38w-6tQlt8g3H-13" value="&lt;font style=&quot;font-size: 20px;&quot;&gt;$$5\omega_0$$&lt;/font&gt;" style="text;html=1;align=center;verticalAlign=middle;whiteSpace=wrap;rounded=0;" parent="1" vertex="1">
          <mxGeometry x="490" y="240" width="60" height="30" as="geometry" />
        </mxCell>
        <mxCell id="v59lE5m38w-6tQlt8g3H-14" value="&lt;font style=&quot;font-size: 20px;&quot;&gt;$$-\omega_0$$&lt;/font&gt;" style="text;html=1;align=center;verticalAlign=middle;whiteSpace=wrap;rounded=0;" parent="1" vertex="1">
          <mxGeometry x="250" y="240" width="60" height="30" as="geometry" />
        </mxCell>
        <mxCell id="v59lE5m38w-6tQlt8g3H-15" value="&lt;font style=&quot;font-size: 20px;&quot;&gt;$$-3\omega_0$$&lt;/font&gt;" style="text;html=1;align=center;verticalAlign=middle;whiteSpace=wrap;rounded=0;" parent="1" vertex="1">
          <mxGeometry x="170" y="240" width="60" height="30" as="geometry" />
        </mxCell>
        <mxCell id="v59lE5m38w-6tQlt8g3H-16" value="&lt;font style=&quot;font-size: 20px;&quot;&gt;$$-5\omega_0$$&lt;/font&gt;" style="text;html=1;align=center;verticalAlign=middle;whiteSpace=wrap;rounded=0;" parent="1" vertex="1">
          <mxGeometry x="90" y="240" width="60" height="30" as="geometry" />
        </mxCell>
        <mxCell id="v59lE5m38w-6tQlt8g3H-17" value="&lt;font style=&quot;font-size: 12px;&quot;&gt;$$H(j3\omega_0)$$&lt;/font&gt;" style="text;html=1;align=center;verticalAlign=middle;whiteSpace=wrap;rounded=0;" parent="1" vertex="1">
          <mxGeometry x="410" y="170" width="60" height="30" as="geometry" />
        </mxCell>
        <mxCell id="v59lE5m38w-6tQlt8g3H-18" value="&lt;font style=&quot;font-size: 12px;&quot;&gt;$$H(j5\omega_0)$$&lt;/font&gt;" style="text;html=1;align=center;verticalAlign=middle;whiteSpace=wrap;rounded=0;" parent="1" vertex="1">
          <mxGeometry x="490" y="180" width="60" height="30" as="geometry" />
        </mxCell>
        <mxCell id="v59lE5m38w-6tQlt8g3H-19" value="&lt;font style=&quot;font-size: 12px;&quot;&gt;$$H(-j\omega_0)$$&lt;/font&gt;" style="text;html=1;align=center;verticalAlign=middle;whiteSpace=wrap;rounded=0;" parent="1" vertex="1">
          <mxGeometry x="250" y="130" width="60" height="30" as="geometry" />
        </mxCell>
        <mxCell id="v59lE5m38w-6tQlt8g3H-20" value="&lt;font style=&quot;font-size: 12px;&quot;&gt;$$H(-j3\omega_0)$$&lt;/font&gt;" style="text;html=1;align=center;verticalAlign=middle;whiteSpace=wrap;rounded=0;" parent="1" vertex="1">
          <mxGeometry x="170" y="170" width="60" height="30" as="geometry" />
        </mxCell>
        <mxCell id="v59lE5m38w-6tQlt8g3H-21" value="&lt;font style=&quot;font-size: 12px;&quot;&gt;$$H(-j5\omega_0)$$&lt;/font&gt;" style="text;html=1;align=center;verticalAlign=middle;whiteSpace=wrap;rounded=0;" parent="1" vertex="1">
          <mxGeometry x="90" y="180" width="60" height="30" as="geometry" />
        </mxCell>
        <mxCell id="v59lE5m38w-6tQlt8g3H-22" value="&lt;font style=&quot;font-size: 16px;&quot;&gt;$$H(j\omega)$$&lt;/font&gt;" style="text;html=1;align=center;verticalAlign=middle;whiteSpace=wrap;rounded=0;" parent="1" vertex="1">
          <mxGeometry x="290" y="90" width="60" height="30" as="geometry" />
        </mxCell>
        <mxCell id="v59lE5m38w-6tQlt8g3H-23" value="" style="endArrow=blockThin;html=1;rounded=0;strokeWidth=2;endFill=1;" parent="1" edge="1">
          <mxGeometry width="50" height="50" relative="1" as="geometry">
            <mxPoint x="70" y="450" as="sourcePoint" />
            <mxPoint x="600" y="450" as="targetPoint" />
          </mxGeometry>
        </mxCell>
        <mxCell id="v59lE5m38w-6tQlt8g3H-24" value="" style="endArrow=blockThin;html=1;rounded=0;endFill=1;strokeWidth=2;" parent="1" edge="1">
          <mxGeometry width="50" height="50" relative="1" as="geometry">
            <mxPoint x="320" y="450" as="sourcePoint" />
            <mxPoint x="320" y="330" as="targetPoint" />
          </mxGeometry>
        </mxCell>
        <mxCell id="v59lE5m38w-6tQlt8g3H-25" value="" style="endArrow=blockThin;html=1;rounded=0;endFill=1;strokeWidth=3;fillColor=#d5e8d4;strokeColor=#82b366;" parent="1" edge="1">
          <mxGeometry width="50" height="50" relative="1" as="geometry">
            <mxPoint x="373" y="450" as="sourcePoint" />
            <mxPoint x="373" y="370" as="targetPoint" />
          </mxGeometry>
        </mxCell>
        <mxCell id="v59lE5m38w-6tQlt8g3H-26" value="" style="endArrow=blockThin;html=1;rounded=0;endFill=1;strokeWidth=3;fillColor=#d5e8d4;strokeColor=#82b366;" parent="1" edge="1">
          <mxGeometry width="50" height="50" relative="1" as="geometry">
            <mxPoint x="453" y="450" as="sourcePoint" />
            <mxPoint x="453" y="410" as="targetPoint" />
          </mxGeometry>
        </mxCell>
        <mxCell id="v59lE5m38w-6tQlt8g3H-27" value="" style="endArrow=blockThin;html=1;rounded=0;endFill=1;strokeWidth=3;fillColor=#d5e8d4;strokeColor=#82b366;" parent="1" edge="1">
          <mxGeometry width="50" height="50" relative="1" as="geometry">
            <mxPoint x="533" y="450" as="sourcePoint" />
            <mxPoint x="533" y="420" as="targetPoint" />
          </mxGeometry>
        </mxCell>
        <mxCell id="v59lE5m38w-6tQlt8g3H-28" value="" style="endArrow=blockThin;html=1;rounded=0;endFill=1;strokeWidth=3;fillColor=#d5e8d4;strokeColor=#82b366;" parent="1" edge="1">
          <mxGeometry width="50" height="50" relative="1" as="geometry">
            <mxPoint x="292.9996551724137" y="450" as="sourcePoint" />
            <mxPoint x="292.9996551724137" y="370" as="targetPoint" />
          </mxGeometry>
        </mxCell>
        <mxCell id="v59lE5m38w-6tQlt8g3H-29" value="" style="endArrow=blockThin;html=1;rounded=0;endFill=1;strokeWidth=3;fillColor=#d5e8d4;strokeColor=#82b366;" parent="1" edge="1">
          <mxGeometry width="50" height="50" relative="1" as="geometry">
            <mxPoint x="212.99965517241372" y="450" as="sourcePoint" />
            <mxPoint x="212.99965517241372" y="410" as="targetPoint" />
          </mxGeometry>
        </mxCell>
        <mxCell id="v59lE5m38w-6tQlt8g3H-30" value="" style="endArrow=blockThin;html=1;rounded=0;endFill=1;strokeWidth=3;fillColor=#d5e8d4;strokeColor=#82b366;" parent="1" edge="1">
          <mxGeometry width="50" height="50" relative="1" as="geometry">
            <mxPoint x="132.99965517241372" y="450" as="sourcePoint" />
            <mxPoint x="132.99965517241372" y="420" as="targetPoint" />
          </mxGeometry>
        </mxCell>
        <mxCell id="v59lE5m38w-6tQlt8g3H-31" value="&lt;font style=&quot;font-size: 12px;&quot;&gt;$$H(j\omega_0)$$&lt;/font&gt;" style="text;html=1;align=center;verticalAlign=middle;whiteSpace=wrap;rounded=0;" parent="1" vertex="1">
          <mxGeometry x="263" y="340" width="60" height="30" as="geometry" />
        </mxCell>
        <mxCell id="v59lE5m38w-6tQlt8g3H-32" value="&lt;font style=&quot;font-size: 20px;&quot;&gt;$$\omega_0$$&lt;/font&gt;" style="text;html=1;align=center;verticalAlign=middle;whiteSpace=wrap;rounded=0;" parent="1" vertex="1">
          <mxGeometry x="332" y="450" width="60" height="30" as="geometry" />
        </mxCell>
        <mxCell id="v59lE5m38w-6tQlt8g3H-33" value="&lt;font style=&quot;font-size: 20px;&quot;&gt;$$3\omega_0$$&lt;/font&gt;" style="text;html=1;align=center;verticalAlign=middle;whiteSpace=wrap;rounded=0;" parent="1" vertex="1">
          <mxGeometry x="412" y="450" width="60" height="30" as="geometry" />
        </mxCell>
        <mxCell id="v59lE5m38w-6tQlt8g3H-34" value="&lt;font style=&quot;font-size: 20px;&quot;&gt;$$5\omega_0$$&lt;/font&gt;" style="text;html=1;align=center;verticalAlign=middle;whiteSpace=wrap;rounded=0;" parent="1" vertex="1">
          <mxGeometry x="492" y="450" width="60" height="30" as="geometry" />
        </mxCell>
        <mxCell id="v59lE5m38w-6tQlt8g3H-35" value="&lt;font style=&quot;font-size: 20px;&quot;&gt;$$-\omega_0$$&lt;/font&gt;" style="text;html=1;align=center;verticalAlign=middle;whiteSpace=wrap;rounded=0;" parent="1" vertex="1">
          <mxGeometry x="252" y="450" width="60" height="30" as="geometry" />
        </mxCell>
        <mxCell id="v59lE5m38w-6tQlt8g3H-36" value="&lt;font style=&quot;font-size: 20px;&quot;&gt;$$-3\omega_0$$&lt;/font&gt;" style="text;html=1;align=center;verticalAlign=middle;whiteSpace=wrap;rounded=0;" parent="1" vertex="1">
          <mxGeometry x="172" y="450" width="60" height="30" as="geometry" />
        </mxCell>
        <mxCell id="v59lE5m38w-6tQlt8g3H-37" value="&lt;font style=&quot;font-size: 20px;&quot;&gt;$$-5\omega_0$$&lt;/font&gt;" style="text;html=1;align=center;verticalAlign=middle;whiteSpace=wrap;rounded=0;" parent="1" vertex="1">
          <mxGeometry x="92" y="450" width="60" height="30" as="geometry" />
        </mxCell>
        <mxCell id="v59lE5m38w-6tQlt8g3H-38" value="&lt;font style=&quot;font-size: 12px;&quot;&gt;$$H(j3\omega_0)$$&lt;/font&gt;" style="text;html=1;align=center;verticalAlign=middle;whiteSpace=wrap;rounded=0;" parent="1" vertex="1">
          <mxGeometry x="183" y="380" width="60" height="30" as="geometry" />
        </mxCell>
        <mxCell id="v59lE5m38w-6tQlt8g3H-39" value="&lt;font style=&quot;font-size: 12px;&quot;&gt;$$H(j5\omega_0)$$&lt;/font&gt;" style="text;html=1;align=center;verticalAlign=middle;whiteSpace=wrap;rounded=0;" parent="1" vertex="1">
          <mxGeometry x="103" y="390" width="60" height="30" as="geometry" />
        </mxCell>
        <mxCell id="v59lE5m38w-6tQlt8g3H-40" value="&lt;font style=&quot;font-size: 12px;&quot;&gt;$$H(-j\omega_0)$$&lt;/font&gt;" style="text;html=1;align=center;verticalAlign=middle;whiteSpace=wrap;rounded=0;" parent="1" vertex="1">
          <mxGeometry x="343" y="340" width="60" height="30" as="geometry" />
        </mxCell>
        <mxCell id="v59lE5m38w-6tQlt8g3H-41" value="&lt;font style=&quot;font-size: 12px;&quot;&gt;$$H(-j3\omega_0)$$&lt;/font&gt;" style="text;html=1;align=center;verticalAlign=middle;whiteSpace=wrap;rounded=0;" parent="1" vertex="1">
          <mxGeometry x="423" y="380" width="60" height="30" as="geometry" />
        </mxCell>
        <mxCell id="v59lE5m38w-6tQlt8g3H-42" value="&lt;font style=&quot;font-size: 12px;&quot;&gt;$$H(-j5\omega_0)$$&lt;/font&gt;" style="text;html=1;align=center;verticalAlign=middle;whiteSpace=wrap;rounded=0;" parent="1" vertex="1">
          <mxGeometry x="503" y="390" width="60" height="30" as="geometry" />
        </mxCell>
        <mxCell id="v59lE5m38w-6tQlt8g3H-43" value="&lt;font style=&quot;font-size: 16px;&quot;&gt;$$H(j(\hat{ \omega}-\omega))$$&lt;/font&gt;" style="text;html=1;align=center;verticalAlign=middle;whiteSpace=wrap;rounded=0;" parent="1" vertex="1">
          <mxGeometry x="290" y="300" width="60" height="30" as="geometry" />
        </mxCell>
        <mxCell id="v59lE5m38w-6tQlt8g3H-46" value="" style="endArrow=none;html=1;rounded=0;dashed=1;strokeColor=#666666;" parent="1" edge="1">
          <mxGeometry width="50" height="50" relative="1" as="geometry">
            <mxPoint x="359.83" y="430" as="sourcePoint" />
            <mxPoint x="359.83" y="450" as="targetPoint" />
          </mxGeometry>
        </mxCell>
        <mxCell id="v59lE5m38w-6tQlt8g3H-47" value="" style="endArrow=blockThin;html=1;rounded=0;strokeColor=#666666;endFill=1;startArrow=blockThin;startFill=1;" parent="1" edge="1">
          <mxGeometry width="50" height="50" relative="1" as="geometry">
            <mxPoint x="356" y="432" as="sourcePoint" />
            <mxPoint x="376" y="432" as="targetPoint" />
          </mxGeometry>
        </mxCell>
        <mxCell id="v59lE5m38w-6tQlt8g3H-49" value="&lt;font color=&quot;#666666&quot;&gt;$$\hat{ \omega}$$&lt;/font&gt;" style="text;html=1;align=center;verticalAlign=middle;whiteSpace=wrap;rounded=0;" parent="1" vertex="1">
          <mxGeometry x="328" y="407" width="60" height="30" as="geometry" />
        </mxCell>
        <mxCell id="v59lE5m38w-6tQlt8g3H-74" value="" style="endArrow=blockThin;html=1;rounded=0;strokeWidth=2;endFill=1;" parent="1" edge="1">
          <mxGeometry width="50" height="50" relative="1" as="geometry">
            <mxPoint x="70" y="661" as="sourcePoint" />
            <mxPoint x="600" y="661" as="targetPoint" />
          </mxGeometry>
        </mxCell>
        <mxCell id="v59lE5m38w-6tQlt8g3H-75" value="" style="endArrow=blockThin;html=1;rounded=0;endFill=1;strokeWidth=2;" parent="1" edge="1">
          <mxGeometry width="50" height="50" relative="1" as="geometry">
            <mxPoint x="320" y="661" as="sourcePoint" />
            <mxPoint x="320" y="541" as="targetPoint" />
          </mxGeometry>
        </mxCell>
        <mxCell id="v59lE5m38w-6tQlt8g3H-76" value="" style="endArrow=blockThin;html=1;rounded=0;endFill=1;strokeWidth=3;fillColor=#e1d5e7;strokeColor=#9673a6;" parent="1" edge="1">
          <mxGeometry width="50" height="50" relative="1" as="geometry">
            <mxPoint x="319.76" y="661" as="sourcePoint" />
            <mxPoint x="320" y="570" as="targetPoint" />
          </mxGeometry>
        </mxCell>
        <mxCell id="v59lE5m38w-6tQlt8g3H-82" value="&lt;font style=&quot;font-size: 20px;&quot;&gt;$$\hat{\omega}$$&lt;/font&gt;" style="text;html=1;align=center;verticalAlign=middle;whiteSpace=wrap;rounded=0;" parent="1" vertex="1">
          <mxGeometry x="560" y="665" width="60" height="30" as="geometry" />
        </mxCell>
        <mxCell id="v59lE5m38w-6tQlt8g3H-95" value="&lt;font style=&quot;font-size: 16px;&quot;&gt;$$H(j\hat{\omega})*H(j\hat{\omega})$$&lt;/font&gt;" style="text;html=1;align=center;verticalAlign=middle;whiteSpace=wrap;rounded=0;" parent="1" vertex="1">
          <mxGeometry x="220" y="530" width="60" height="30" as="geometry" />
        </mxCell>
        <mxCell id="v59lE5m38w-6tQlt8g3H-98" value="$$H(j\hat{\omega})*H(j\hat{\omega})=0\space\space \text{except} \space \hat{ \omega}=0$$" style="text;html=1;align=center;verticalAlign=middle;whiteSpace=wrap;rounded=0;" parent="1" vertex="1">
          <mxGeometry x="460" y="560" width="60" height="30" as="geometry" />
        </mxCell>
        <mxCell id="v59lE5m38w-6tQlt8g3H-102" value="&lt;font style=&quot;font-size: 20px;&quot;&gt;$$0$$&lt;/font&gt;" style="text;html=1;align=center;verticalAlign=middle;whiteSpace=wrap;rounded=0;" parent="1" vertex="1">
          <mxGeometry x="290" y="660" width="60" height="30" as="geometry" />
        </mxCell>
        <mxCell id="5KNAxi1baxQNJGTKksLq-1" value="&lt;font style=&quot;font-size: 20px;&quot;&gt;$$\omega$$&lt;/font&gt;" style="text;html=1;align=center;verticalAlign=middle;whiteSpace=wrap;rounded=0;" parent="1" vertex="1">
          <mxGeometry x="560" y="450" width="60" height="30" as="geometry" />
        </mxCell>
        <mxCell id="_YHFm-a-ZULon9SnmjI4-6" value="&lt;font style=&quot;font-size: 20px;&quot;&gt;$$-2\omega_0$$&lt;/font&gt;" style="text;html=1;align=center;verticalAlign=middle;whiteSpace=wrap;rounded=0;" parent="1" vertex="1">
          <mxGeometry x="210" y="660" width="60" height="30" as="geometry" />
        </mxCell>
        <mxCell id="_YHFm-a-ZULon9SnmjI4-7" value="" style="endArrow=blockThin;html=1;rounded=0;endFill=1;strokeWidth=3;fillColor=#e1d5e7;strokeColor=#CCCCCC;dashed=1;dashPattern=12 12;" parent="1" edge="1">
          <mxGeometry width="50" height="50" relative="1" as="geometry">
            <mxPoint x="560" y="660" as="sourcePoint" />
            <mxPoint x="560" y="640" as="targetPoint" />
          </mxGeometry>
        </mxCell>
        <mxCell id="_YHFm-a-ZULon9SnmjI4-10" value="" style="endArrow=blockThin;html=1;rounded=0;endFill=1;strokeWidth=3;fillColor=#e1d5e7;strokeColor=#CCCCCC;dashed=1;dashPattern=12 12;" parent="1" edge="1">
          <mxGeometry width="50" height="50" relative="1" as="geometry">
            <mxPoint x="80" y="660" as="sourcePoint" />
            <mxPoint x="80" y="640" as="targetPoint" />
          </mxGeometry>
        </mxCell>
        <mxCell id="_YHFm-a-ZULon9SnmjI4-11" value="&lt;font style=&quot;font-size: 20px;&quot;&gt;$$4\omega_0$$&lt;/font&gt;" style="text;html=1;align=center;verticalAlign=middle;whiteSpace=wrap;rounded=0;" parent="1" vertex="1">
          <mxGeometry x="450" y="660" width="60" height="30" as="geometry" />
        </mxCell>
        <mxCell id="_YHFm-a-ZULon9SnmjI4-12" value="&lt;font style=&quot;font-size: 20px;&quot;&gt;$$6\omega_0$$&lt;/font&gt;" style="text;html=1;align=center;verticalAlign=middle;whiteSpace=wrap;rounded=0;" parent="1" vertex="1">
          <mxGeometry x="520" y="660" width="60" height="30" as="geometry" />
        </mxCell>
        <mxCell id="_YHFm-a-ZULon9SnmjI4-13" value="&lt;font style=&quot;font-size: 20px;&quot;&gt;$$2\omega_0$$&lt;/font&gt;" style="text;html=1;align=center;verticalAlign=middle;whiteSpace=wrap;rounded=0;" parent="1" vertex="1">
          <mxGeometry x="380" y="660" width="60" height="30" as="geometry" />
        </mxCell>
        <mxCell id="_YHFm-a-ZULon9SnmjI4-14" value="&lt;font style=&quot;font-size: 20px;&quot;&gt;$$-4\omega_0$$&lt;/font&gt;" style="text;html=1;align=center;verticalAlign=middle;whiteSpace=wrap;rounded=0;" parent="1" vertex="1">
          <mxGeometry x="130" y="660" width="60" height="30" as="geometry" />
        </mxCell>
        <mxCell id="_YHFm-a-ZULon9SnmjI4-15" value="&lt;font style=&quot;font-size: 20px;&quot;&gt;$$-6\omega_0$$&lt;/font&gt;" style="text;html=1;align=center;verticalAlign=middle;whiteSpace=wrap;rounded=0;" parent="1" vertex="1">
          <mxGeometry x="53" y="660" width="60" height="30" as="geometry" />
        </mxCell>
        <mxCell id="IF6YJXdnpXKBoxR781ep-1" value="" style="endArrow=blockThin;html=1;rounded=0;endFill=1;strokeWidth=3;fillColor=#e1d5e7;strokeColor=#CCCCCC;dashed=1;dashPattern=12 12;" edge="1" parent="1">
          <mxGeometry width="50" height="50" relative="1" as="geometry">
            <mxPoint x="159.89" y="660" as="sourcePoint" />
            <mxPoint x="159.89" y="640" as="targetPoint" />
          </mxGeometry>
        </mxCell>
        <mxCell id="IF6YJXdnpXKBoxR781ep-2" value="" style="endArrow=blockThin;html=1;rounded=0;endFill=1;strokeWidth=3;fillColor=#e1d5e7;strokeColor=#CCCCCC;dashed=1;dashPattern=12 12;" edge="1" parent="1">
          <mxGeometry width="50" height="50" relative="1" as="geometry">
            <mxPoint x="239.89" y="660" as="sourcePoint" />
            <mxPoint x="239.89" y="640" as="targetPoint" />
          </mxGeometry>
        </mxCell>
        <mxCell id="IF6YJXdnpXKBoxR781ep-3" value="" style="endArrow=blockThin;html=1;rounded=0;endFill=1;strokeWidth=3;fillColor=#e1d5e7;strokeColor=#CCCCCC;dashed=1;dashPattern=12 12;" edge="1" parent="1">
          <mxGeometry width="50" height="50" relative="1" as="geometry">
            <mxPoint x="479.89" y="660" as="sourcePoint" />
            <mxPoint x="479.89" y="640" as="targetPoint" />
          </mxGeometry>
        </mxCell>
        <mxCell id="IF6YJXdnpXKBoxR781ep-4" value="" style="endArrow=blockThin;html=1;rounded=0;endFill=1;strokeWidth=3;fillColor=#e1d5e7;strokeColor=#CCCCCC;dashed=1;dashPattern=12 12;" edge="1" parent="1">
          <mxGeometry width="50" height="50" relative="1" as="geometry">
            <mxPoint x="400" y="660" as="sourcePoint" />
            <mxPoint x="400" y="640" as="targetPoint" />
          </mxGeometry>
        </mxCell>
        <mxCell id="IF6YJXdnpXKBoxR781ep-5" value="&lt;b&gt;&lt;font style=&quot;font-size: 14px;&quot;&gt;$$2\pi$$&lt;/font&gt;&lt;/b&gt;" style="text;html=1;align=center;verticalAlign=middle;whiteSpace=wrap;rounded=0;" vertex="1" parent="1">
          <mxGeometry x="270" y="560" width="60" height="30" as="geometry" />
        </mxCell>
      </root>
    </mxGraphModel>
  </diagram>
</mxfile>
